<svg xmlns="http://www.w3.org/2000/svg" viewBox="0 0 293.89 58.38"><defs><style>.cls-1{fill:#375a7f;}.cls-2{fill:#1d1d1b;}</style></defs><title>logo</title><g id="logo_dots" data-name="logo dots"><path class="cls-1" d="M199.87,64.51A2.47,2.47,0,1,0,197.4,67,2.47,2.47,0,0,0,199.87,64.51Z" transform="translate(-181.68 -55.39)"/><path class="cls-1" d="M198.2,101.36a2.48,2.48,0,1,0,2.47,2.48A2.48,2.48,0,0,0,198.2,101.36Z" transform="translate(-181.68 -55.39)"/><path class="cls-1" d="M191.94,81.56A2.47,2.47,0,1,0,194.42,84,2.48,2.48,0,0,0,191.94,81.56Z" transform="translate(-181.68 -55.39)"/><path class="cls-1" d="M184.15,81.56A2.47,2.47,0,1,0,186.63,84,2.48,2.48,0,0,0,184.15,81.56Z" transform="translate(-181.68 -55.39)"/></g><g id="logo_main" data-name="logo main"><path class="cls-2" d="M237.93,55.75l-9.79-.36A6.86,6.86,0,0,0,221.33,62V62H204.5a2.47,2.47,0,1,0,0,4.94h22.27a2.48,2.48,0,0,1,0,5H185.26a2.48,2.48,0,0,0-2.47,2.47,1,1,0,0,0,0,.17,2.27,2.27,0,0,0,2.29,2.08h30.08a2.48,2.48,0,0,1,0,4.95H199.82a2.47,2.47,0,0,0-2.47,2.47h0a2.48,2.48,0,0,0,2.47,2.47h18.65A2.53,2.53,0,0,1,221,89a2.48,2.48,0,0,1-2.47,2.52h-28a2.47,2.47,0,0,0-2,2.49,2.53,2.53,0,0,0,2.55,2.4h23.2a2.52,2.52,0,0,1,2.55,2.42,2.47,2.47,0,0,1-2.47,2.52H206a2.48,2.48,0,0,0,0,5h13.78l0,.93a6.31,6.31,0,0,0,6.35,6.57h29.19c1.53,0,5.86-.52,7-1.4Z" transform="translate(-181.68 -55.39)"/></g><g id="vbuw"><path class="cls-1" d="M280.84,55.75a4.7,4.7,0,0,0-2.86,1,5.52,5.52,0,0,0-1.85,2.38l-16.75,41.75L242.63,59.05a5.63,5.63,0,0,0-1.84-2.35,4.73,4.73,0,0,0-2.86-1,4.84,4.84,0,0,0-3.63,1.42A5.07,5.07,0,0,0,233,60.8a5.34,5.34,0,0,0,.34,1.88l19.06,46.23,0,0c1.66,3.66,4.26,4.42,6.14,4.42h1.7c1.89,0,4.48-.76,6.17-4.47l19.08-46.27a5.17,5.17,0,0,0,.33-1.84,5,5,0,0,0-1.35-3.63A4.8,4.8,0,0,0,280.84,55.75Z" transform="translate(-181.68 -55.39)"/><path class="cls-1" d="M328.46,83.24a14.64,14.64,0,0,0,3.25-3.32,14,14,0,0,0,2.41-8.32,14.06,14.06,0,0,0-5.06-11.33c-3.27-2.75-7.89-4.14-13.73-4.14H297.12a4.78,4.78,0,0,0-3.55,1.51,4.91,4.91,0,0,0-1.42,3.54V108a4.93,4.93,0,0,0,5,5h18.67c7.17,0,12.56-1.47,16-4.36s5.32-7.09,5.32-12.27a13.16,13.16,0,0,0-3.36-9.19A17.85,17.85,0,0,0,328.46,83.24Zm-1.13,12.82a6.23,6.23,0,0,1-2.51,5.36c-1.81,1.34-5.08,2-9.72,2H302.17V88.77h13C327.33,88.77,327.33,94.26,327.33,96.06ZM302.17,79.44V65.69h12.62c3.11,0,5.55.63,7.26,1.88a5.34,5.34,0,0,1,2.35,4.57,6.48,6.48,0,0,1-2.24,5.33c-1.56,1.31-4.49,2-8.68,2Z" transform="translate(-181.68 -55.39)"/><path class="cls-1" d="M387.48,55.75a4.84,4.84,0,0,0-3.55,1.5,5,5,0,0,0-1.42,3.55V91.51a12.6,12.6,0,0,1-1.88,7,11.7,11.7,0,0,1-5,4.33,16.25,16.25,0,0,1-13.55,0,11.7,11.7,0,0,1-5-4.33,12.6,12.6,0,0,1-1.88-7V60.8a5.05,5.05,0,0,0-5.05-5,4.83,4.83,0,0,0-3.55,1.5,5,5,0,0,0-1.42,3.55V91.28a21.07,21.07,0,0,0,12.45,20h0a26.8,26.8,0,0,0,22.39,0,21.07,21.07,0,0,0,12.45-20V60.8a5.05,5.05,0,0,0-5-5Z" transform="translate(-181.68 -55.39)"/><path class="cls-1" d="M474.24,57.15a4.85,4.85,0,0,0-3.57-1.4,4.71,4.71,0,0,0-3.12,1.12,5.69,5.69,0,0,0-1.79,2.72l-11.53,37.9-11.6-37.73a5.44,5.44,0,0,0-2.06-2.92,5.82,5.82,0,0,0-6.78,0,5.42,5.42,0,0,0-2.06,2.9l-11.6,37.75L408.59,59.58a5.62,5.62,0,0,0-1.78-2.71,4.71,4.71,0,0,0-3.12-1.12,4.85,4.85,0,0,0-3.57,1.4,4.52,4.52,0,0,0-1.33,3.49,6.61,6.61,0,0,0,.31,1.78l15.14,46.5a6.81,6.81,0,0,0,2.33,3.28,5.93,5.93,0,0,0,3.63,1.18,6,6,0,0,0,3.72-1.26,6.3,6.3,0,0,0,2.27-3.26l11-34.82,11,34.8a6.27,6.27,0,0,0,2.27,3.28,6,6,0,0,0,3.72,1.26,5.93,5.93,0,0,0,3.63-1.18,7,7,0,0,0,2.35-3.32l15.14-46.53a5.9,5.9,0,0,0,.28-1.63A4.55,4.55,0,0,0,474.24,57.15Z" transform="translate(-181.68 -55.39)"/></g></svg>
